<svg id="Layer_1" data-name="Layer 1" xmlns="http://www.w3.org/2000/svg" viewBox="0 0 150.37 226.21"><defs><style>.cls-1{fill:#c2e8f8;}.cls-1,.cls-10,.cls-11,.cls-12,.cls-13,.cls-14,.cls-15,.cls-16,.cls-17,.cls-18,.cls-19,.cls-2,.cls-20,.cls-21,.cls-22,.cls-23,.cls-24,.cls-25,.cls-26,.cls-27,.cls-28,.cls-29,.cls-3,.cls-30,.cls-31,.cls-32,.cls-33,.cls-34,.cls-35,.cls-36,.cls-37,.cls-38,.cls-4,.cls-5,.cls-6,.cls-7,.cls-8,.cls-9{fill-rule:evenodd;}.cls-2{fill:#6fb2cb;}.cls-3{fill:#bde6f7;}.cls-4{fill:#76b8c8;}.cls-5{fill:#a3d6ea;}.cls-6{fill:#8492c7;}.cls-7{fill:#d37a9f;}.cls-8{fill:#799ac2;}.cls-9{fill:#444648;}.cls-10{fill:#393c3c;}.cls-11{fill:#cae3f6;}.cls-12{fill:#d17ca7;}.cls-13{fill:#8296c6;}.cls-14{fill:#7ab4c8;}.cls-15{fill:#82b7cb;}.cls-16{fill:#7b9cbe;}.cls-17{fill:#7b9dbe;}.cls-18{fill:#7c99c0;}.cls-19{fill:#8593c8;}.cls-20{fill:#c1e6f5;}.cls-21{fill:#c0e5f4;}.cls-22{fill:#7799bc;}.cls-23{fill:#b0cfec;}.cls-24{fill:#bfe4f3;}.cls-25{fill:#bee3f3;}.cls-26{fill:#bee4f3;}.cls-27{fill:#bee3f2;}.cls-28{fill:#b3d0ed;}.cls-29{fill:#4a7584;}.cls-30{fill:#dceef5;}.cls-31{fill:#c7cbe2;}.cls-32{fill:#c8d3d6;}.cls-33{fill:#cdd6db;}.cls-34{fill:#365460;}.cls-35{fill:#365561;}.cls-36{fill:#365560;}.cls-37{fill:#375461;}.cls-38{fill:#375561;}</style></defs><title>hackgteenytemplate</title><path class="cls-1" d="M357.94,306.71a14.58,14.58,0,0,1-9.16,3.41c-7.94.21-14-3.46-19.13-9.27-3.3-3.77-4.6-8.37-6.06-13A73.27,73.27,0,0,1,321,275.64c-.36-2.54-.67-5.12-.8-7.69a120.3,120.3,0,0,1,.7-19.3c.38-3.47,1.17-6.89,1.8-10.32.08-.45.35-.86,0-1.42-1.59,1.18-2,.38-1.84-1.18,0-.17,0-.43,0-.5-2.23-1.75-.23-3.83-.44-5.73-.07-.65.46-1.44-.82-1.28-.8.1-.77-.47-.64-1a19.2,19.2,0,0,1,1.57-4.37c.2-.4.67-.91.07-1.17-1.75-.76-.47-1.11.15-1.61q1.81-1.46,3.58-3a2.9,2.9,0,0,0,.7-.75c3.37-6.12,8-11.38,11.64-17.32a168.76,168.76,0,0,0,11.84-22.7,93.61,93.61,0,0,0,6.21-20.85,47.84,47.84,0,0,0,.82-11.67c-.06-.73.05-1.61-1.11-.76-.68.5-1,.07-1-.57,0-.87-.1-1.58-1-2-.45-.18-.33-.68-.39-1.07-.22-1.4.35-2.81-.67-4.27-.47-.68.55-2.29.78-3.52a17.49,17.49,0,0,0-.22-5.46,33.14,33.14,0,0,1,.66-10.59c.24-1.24.3-1.86-1.35-2.18-2.3-.44-4.82-.35-6.83-1.91.69-.59,1.44-.19,2.14-.07a28.9,28.9,0,0,0,5.31.6c1.08,0,1.68-.38,1.88-1.53q.63-3.57,1.34-7.14c.24-1.18-.14-1.76-1.36-1.79A27.8,27.8,0,0,0,343.34,103a8.12,8.12,0,0,0-4.49,4.28c-2.13-3.13-.72-8.32,3.14-10.05A16.51,16.51,0,0,1,351.61,96a13.79,13.79,0,0,0,6.56-.83c4-1.22,7.7-3.23,11.48-5A55.37,55.37,0,0,1,388.78,85a49.26,49.26,0,0,1,14,.93,40.91,40.91,0,0,1,13.73,5.76,44.72,44.72,0,0,0,9.85,4.37,10.49,10.49,0,0,0,4.28,0c4.4-.43,8.75-.22,12.71,2.05a7.13,7.13,0,0,1,2.52,9.89c-.48-.33-.48-.93-.78-1.36a6.93,6.93,0,0,0-4-3.06,22.13,22.13,0,0,0-12.32-.87,5.44,5.44,0,0,1,1.88,3.44,17.67,17.67,0,0,0,1.29,4.81c.77,2,1.14,2.26,3.33,2.08,1.11-.09,2.25-.69,3.32.14a10,10,0,0,1-3.54,1.1c-1,.07-1.63.31-1.41,1.83a31.41,31.41,0,0,1-.39,11.92,10,10,0,0,0,.4,6.77c.17.34.51.82,0,1.06-1.19.57-.89,1.6-.95,2.54s.4,1.94-1.07,2.34c-.59.16-.31,1.12-.19,1.74.05.27.24.57-.13.73s-.52-.07-.71-.31c-.34-.44-.66-1.12-1.33-.83s-.34,1-.36,1.56c-.19,7.5,1.62,14.64,3.89,21.7,2.88,8.94,7.07,17.31,11.5,25.53a169,169,0,0,0,10,16.22c3.06,4.41,6,8.9,8.95,13.4,1.11,1.71,2.91,2.57,4.33,3.89.5.47,1.34.81.08,1.43-.58.29-.07.84,0,1.23.45,1.64,1.25,3.22.7,5a.78.78,0,0,0,.09.5c.49,1,1.15,1.91.35,3.3-.33.58.08,2-.19,2.95a5.41,5.41,0,0,1-.4.88c-.69,0-.45-.83-.93-1-.35.12-.34.42-.34.71,0,3.46,0,6.92,0,10.38-.1,5.56-.69,11.09-1.25,16.62-.42,4.16-.94,8.32-1.6,12.43-.52,3.24-1.07,6.5-1.82,9.73-.82,3.55-2.64,6.59-3.9,9.89-.05.14-.26.21-.4.31-.37.08-.49-.15-.56-.45a24,24,0,0,1,1.49-4c.3-.87.71-1.71.93-2.61,1.89-7.54,3.77-15.08,4.55-22.85a210.83,210.83,0,0,0,1.41-25.35,3,3,0,0,0-.1-1.1,21.69,21.69,0,0,1-6.24,9,24.58,24.58,0,0,1-7.57,4.35,16.15,16.15,0,0,0-2.83,1.3,22.91,22.91,0,0,1-7.53,2.92,25.72,25.72,0,0,1,7.91,2.4,20.48,20.48,0,0,1,5.82,4.57,4.3,4.3,0,0,1,.86,1.29c.1.26.25.56,0,.81a.8.8,0,0,1-1,.1,2.75,2.75,0,0,1-1-.91c-5-6.42-16.2-8.35-22.6-5.25-1.5.73-1.77.55-2.05-.61,2.21-1.76,4.89-2.12,7.56-2.42,2.21-.25,2.33-.29,2.41-2.58a10.43,10.43,0,0,1,.15-1.88c.21-1.86.37-3.73.53-5.6.24-3.95.69-7.87,1-11.81.37-4.16.77-8.33,1.14-12.49.44-1.26.13-2.59.36-3.87s.13-2.45.35-3.66a9.19,9.19,0,0,0,.2-3.54c-.06-.15-.11-.3-.16-.45a2.19,2.19,0,0,0-1.06-1.19l-.43-.28a1.63,1.63,0,0,0-.53-.17c-5.73-.07-11.45,0-17.17,0a5.87,5.87,0,0,1-2.37-.22,1,1,0,0,1-.49-1c.41-3-1.56-4.47-3.59-6-3.6-2.7-7.81-3.47-12.12-4.15a77.68,77.68,0,0,0-15.66-1.05c-6.7.32-13.33,1.09-19.58,3.78a17.78,17.78,0,0,0-3.6,2c-1.79,1.32-3.21,2.84-2.88,5.32a1,1,0,0,1-.42,1.07,10.72,10.72,0,0,1-3.59.25c-3.5.14-7-.25-10.5.22-.15.14-.31.26-.47.38a3.17,3.17,0,0,0-1.21,3.22c.71,6.64,1.51,13.26,2.18,19.91.74,7.38,1.78,14.74,2.32,22.14a3.43,3.43,0,0,1,0,1.2,5.13,5.13,0,0,1-5,.64c-2.26-.84-4.45-1.54-6.75-.07a3.08,3.08,0,0,1-2.18.29,1.09,1.09,0,0,1-.65-.51,4.17,4.17,0,0,0-1.2-1.65c-5.52-5.06-10.19-11.62-12.46-18.3a127.38,127.38,0,0,0-2.15,16.93,100.58,100.58,0,0,0,.13,11.56A97.5,97.5,0,0,0,323.8,284c1,4.67,2.18,9.41,4.81,13.44,4.49,6.85,10.71,11.2,19.19,11.53a15.74,15.74,0,0,0,7.64-1.92,4,4,0,0,1,1.75-.69A1,1,0,0,1,357.94,306.71Z" transform="translate(-318.85 -84.87)"/><path class="cls-2" d="M338.85,107.31c-.07-2,1.17-3.08,2.66-3.9,4.08-2.25,8.54-2.48,13.05-2.29,1,0,1.37.52,1.14,1.62-.6,2.85-1.12,5.73-1.59,8.61-.16,1-.74,1.12-1.57,1.16a35.21,35.21,0,0,1-8.17-1C342.11,110.69,339.91,109.75,338.85,107.31Z" transform="translate(-318.85 -84.87)"/><path class="cls-2" d="M438.56,113.17c-1.66.12-3.32.22-5,.37a1.31,1.31,0,0,1-1.57-1c-.6-2-1.78-3.84-1.8-6.08,0-1.59-1-2.85-2.33-4.08a23.46,23.46,0,0,1,11.71.23,10.66,10.66,0,0,1,5,2.57c.4.4.89.76.91,1.41,0,1.46-1.14,2.5-1.38,3.86C442.59,112,440.49,112.4,438.56,113.17Z" transform="translate(-318.85 -84.87)"/><path class="cls-3" d="M457.62,298.39l.36.35c-2.95,6.5-7.85,10.78-14.89,11.95-4.52.75-9.24.52-13.45-1.7a57.8,57.8,0,0,0-17.17-5.64c-4.09-.71-8.25-1.22-12.41-1.64-4.94-.5-9.86-.47-14.79-.58a.57.57,0,0,1,.1-.84c1.75-.63,3.53-.33,5.31-.21a15,15,0,0,0,4.12.25A107.6,107.6,0,0,1,420.21,304c.27-.64-.22-.92-.42-1.29a29.46,29.46,0,0,1-3.24-16.2,41.29,41.29,0,0,1,2.92-13.1,13.57,13.57,0,0,1,1.38-2.59c.36-.52.76-1.25,1.48-.88s.22,1.13,0,1.63a29.92,29.92,0,0,0-1.73,4,35.74,35.74,0,0,0-1.33,21.41,14,14,0,0,0,7.8,9.77c5.45,2.63,11,4,17.07,2.66,5.52-1.2,9.12-4.9,12.09-9.39C456.57,299.35,456.67,298.47,457.62,298.39Z" transform="translate(-318.85 -84.87)"/><path class="cls-3" d="M385.26,300.47v.67a109.29,109.29,0,0,0-15.72,1.36c-1,.16-2,0-3.08.23-2.62.5-5.28.73-7,3.17a1.93,1.93,0,0,1-1.47.81h-.72c-.07-.79.57-1.09,1.05-1.45,6.79-5,8.79-12,7.92-20a41.34,41.34,0,0,0-4.52-15.15c-.18-.34-.52-.74-.18-1.09s.86-.13,1.26.11a2.86,2.86,0,0,1,1,1.35A41.38,41.38,0,0,1,368.06,290a22.55,22.55,0,0,1-2.94,10.22,3.25,3.25,0,0,0-.73,1.62c2.71-.32,5.4-.64,8.07-1.06,3.43-.54,6.9-.41,10.33-.79A2.85,2.85,0,0,1,385.26,300.47Z" transform="translate(-318.85 -84.87)"/><path class="cls-4" d="M444.13,110.45c-.49-1.63.64-2.67,1.38-3.86.47.38.27.93.37,1.41A3.81,3.81,0,0,1,444.13,110.45Z" transform="translate(-318.85 -84.87)"/><path class="cls-5" d="M385.26,300.47A129.26,129.26,0,0,0,363,302.71c6.77-9.65,5.11-19.62,1.36-29.59-.54-1.44-.64-3.48-2.77-4.11a44.6,44.6,0,0,1,5,15.81,23.86,23.86,0,0,1-2.32,14.51,20.34,20.34,0,0,1-6.71,7,3.76,3.76,0,0,0-.37.35,21,21,0,0,1-8.76,2.77,19.67,19.67,0,0,1-11.57-3.3c-3.77-2.38-7.11-5.25-9.2-9.34a53.19,53.19,0,0,1-4.33-12.49,98.81,98.81,0,0,1-2.44-26,95.72,95.72,0,0,1,1.5-14.34,48.2,48.2,0,0,1,1-5.29c.91.94,1,2.21,1.47,3.27a46.93,46.93,0,0,0,8.26,12.44,26,26,0,0,0,3.77,3.75c.43.29,1,.68.57,1.4-1.9,1.46-4.06,2.51-5.76,4.31a33.42,33.42,0,0,0-6.43,9.92c2.14-4.77,4.84-9.12,9.2-12.2a8.33,8.33,0,0,1,3.35-1.67,10.29,10.29,0,0,0,3.53-1.11c1.26-.8,2.86-.32,4.17.2,1.82.72,3.54,1.37,5.44.32.13-.07.41.15.63.24,1.68,2.14,3.95,2.28,6.49,2.27,22.79-.08,45.57-.05,68.36,0,1.06,0,2.21-.29,3.13.58.33,1.22,1.14.34,1.48.18,5.69-2.62,11.3-1.92,16.87.31a16.87,16.87,0,0,1,6.78,5.16c.32.39.47,1,1.15.8-.77-2-3.64-4.59-6.73-6.25-2.77-1.48-5.91-1.73-8.86-2.85,4-.5,7.15-2.8,10.68-4.16a40.74,40.74,0,0,0,5.7-2.87,19.45,19.45,0,0,0,8.42-10.13c.2-.51.15-1.16.8-1.46.11.14.3.27.3.4,0,4,.19,8-.07,11.92-.15,2.34-.29,4.69-.46,7-.35,4.86-1,9.68-1.7,14.49a44.12,44.12,0,0,1-1.17,6.93c-1.7,5.49-2.2,11.37-5.17,16.46a25.07,25.07,0,0,1-7.89,9.09,15.91,15.91,0,0,1-7.19,2.66,26.45,26.45,0,0,1-19.36-5.43,12.55,12.55,0,0,1-4.25-7.12c-2.33-8.66-1.27-17.06,2.37-25.19a11.49,11.49,0,0,1,.69-1.2c.2-.33.53-.61.38-1.06-1.66.78-3,3.75-4.65,10.83a32.83,32.83,0,0,0-.54,12.11,25.47,25.47,0,0,0,4.23,11.45c-8.77-1.94-17.49-3.69-26.45-3.71-1.35-.49-2.8.12-4.15-.34Z" transform="translate(-318.85 -84.87)"/><path class="cls-6" d="M429.59,262.43l-36,0c-12.21,0-24.43,0-36.64,0-1.19,0-2.39.56-3.62-.38a4,4,0,0,1-1.76-2.37q-.65-6-1.3-11.95c-.55-5-1.13-10-1.67-15q-.76-7.09-1.44-14.2a16.77,16.77,0,0,1-.36-3.59c.13-1.1.46-2,1.67-2.33a3.3,3.3,0,0,1,2-.32q34.4-.31,68.8-.11c7,0,13.94,0,20.91.11a2.9,2.9,0,0,1,1.84.32h0c.48.45,1,.91,1.39,1.4h0a10.72,10.72,0,0,1,0,3.88c-.17,1.25.29,2.56-.32,3.77s.07,2.59-.37,3.84c-.21,5.13-.8,10.23-1.34,15.33-.32,3.06-.55,6.14-.82,9.21a9.32,9.32,0,0,0-.62,5.58c-.11,1.36.32,2.82-.33,4.08-.83,1.61-2.47.51-3.72.81A34.27,34.27,0,0,0,429.59,262.43Z" transform="translate(-318.85 -84.87)"/><path class="cls-5" d="M363.45,211.85c-.89-2.67-.11-4.6,2.71-6.55,4-2.78,8.61-4,13.32-4.85a75,75,0,0,1,15.26-1.08,129.88,129.88,0,0,1,14,1.67,21,21,0,0,1,11.09,5.37,4.61,4.61,0,0,1,1.46,5.44l-.27.21a6,6,0,0,1-1.88.13H365.61a6,6,0,0,1-1.89-.13Z" transform="translate(-318.85 -84.87)"/><path class="cls-5" d="M383.56,141.25a7.47,7.47,0,0,1-3.78-7.81,1.82,1.82,0,0,0-1.31-2.21,9.83,9.83,0,0,1-3.34-2.4,3.31,3.31,0,0,1,0-4.66c1.72-2.19,4.23-2.94,6.66-3.72,3.64-1.18,7.3-2.44,11.25-2.1a32.36,32.36,0,0,1,14.63,4.57c2.66,1.66,3,4.44.63,6.43-1.95,1.62-3.2,2.8-2.77,5.86.5,3.53-4,6.33-7.87,5.56a18,18,0,0,1-3.86-1.29c-.39-.18-.5-.06-.56.29-.76.58-1.39-.28-2.1-.18-1.19-.26-1.78.67-2.53,1.29A5.22,5.22,0,0,1,383.56,141.25Z" transform="translate(-318.85 -84.87)"/><path class="cls-7" d="M391.2,139.17c.83-.3,1.27.67,2,.63l.79.39c.72.84.43,1.8.3,2.74-.5,1.88-2,2.56-3.66,2.82a10.85,10.85,0,0,1-6.42-1.15,4.16,4.16,0,0,1-.46-.91c-.59-1.35-.11-2,1.36-2.11s2.92.31,4-1.06C389.52,139.64,390.46,139.56,391.2,139.17Z" transform="translate(-318.85 -84.87)"/><path class="cls-8" d="M442.07,212.52H348.5c0-.1,0-.21.07-.31a35.89,35.89,0,0,1,6.15-.16c2.92,0,5.84,0,8.76,0h57.75q9.48,0,19,0a3.65,3.65,0,0,1,1.86.16A1.62,1.62,0,0,1,442.07,212.52Z" transform="translate(-318.85 -84.87)"/><path class="cls-9" d="M412.68,123.58c-2.07,0-2.82-.69-2.84-2.67,0-2.15.69-2.89,2.8-2.89s2.75.72,2.76,2.75S414.68,123.56,412.68,123.58Z" transform="translate(-318.85 -84.87)"/><path class="cls-10" d="M370.34,123.22c-2,0-2.72-.73-2.72-2.77s.7-2.76,2.72-2.77,2.83.73,2.81,2.85S372.4,123.23,370.34,123.22Z" transform="translate(-318.85 -84.87)"/><path class="cls-3" d="M337.84,260a24.25,24.25,0,0,0-9.63,9.1c-.8,1.39-1.49,2.84-2.27,4.24-.34.62-.42,1.46-1.7,2,.69-1.51,1.19-2.71,1.78-3.87,2.45-4.77,5.55-9,10.49-11.47a7,7,0,0,1,1-.33Z" transform="translate(-318.85 -84.87)"/><path class="cls-11" d="M442,212.2l-20.76,0c-.12-.06-.16-.13-.13-.2s.07-.11.11-.11h0q9.49,0,19,0C440.85,211.86,441.53,211.62,442,212.2Z" transform="translate(-318.85 -84.87)"/><path class="cls-12" d="M389.4,140.51c.11,1.21-.9,1.16-1.61,1.38a4.2,4.2,0,0,1-1.19,0c-2.87,0-2.87,0-2.38,2.68-1.54-.85-1.14-2.09-.67-3.35a9.47,9.47,0,0,0,5.16-.77A.51.51,0,0,1,389.4,140.51Z" transform="translate(-318.85 -84.87)"/><path class="cls-11" d="M363.44,212.16l-14.87,0c.5-.58,1.18-.34,1.78-.34,4.37,0,8.74,0,13.1,0h0q.16.12.1.22C363.52,212.13,363.48,212.16,363.44,212.16Z" transform="translate(-318.85 -84.87)"/><path class="cls-13" d="M440,255.51a4.56,4.56,0,0,1,.62-5.58A31.94,31.94,0,0,1,440,255.51Z" transform="translate(-318.85 -84.87)"/><path class="cls-14" d="M414,114.52c1.91.28,3.34.62,3.89,2.7A12,12,0,0,1,414,114.52Z" transform="translate(-318.85 -84.87)"/><path class="cls-15" d="M364.34,116.69a4.87,4.87,0,0,1,3.71-2.56A13.25,13.25,0,0,1,364.34,116.69Z" transform="translate(-318.85 -84.87)"/><path class="cls-16" d="M442.75,225.39c.15-1.28-.44-2.62.37-3.84C442.9,222.82,443.42,224.16,442.75,225.39Z" transform="translate(-318.85 -84.87)"/><path class="cls-17" d="M443.45,217.78q0-1.94,0-3.88A5,5,0,0,1,443.45,217.78Z" transform="translate(-318.85 -84.87)"/><path class="cls-18" d="M443.45,213.91a1.67,1.67,0,0,1-1.39-1.4A1.53,1.53,0,0,1,443.45,213.91Z" transform="translate(-318.85 -84.87)"/><path class="cls-5" d="M394.3,142.92a6.7,6.7,0,0,0-.3-2.74C395.13,141,394.62,142,394.3,142.92Z" transform="translate(-318.85 -84.87)"/><path class="cls-3" d="M390.81,300.47c1.38.17,2.82-.37,4.15.34C393.58,300.64,392.14,301.18,390.81,300.47Z" transform="translate(-318.85 -84.87)"/><path class="cls-19" d="M425.44,265.51c-.51.57-1.19.33-1.79.33q-31.66,0-63.31,0a3.24,3.24,0,0,1-2.76-1.07c.18-1,1-.64,1.53-.65,1.78-.06,3.57,0,5.35,0h58.38a13.82,13.82,0,0,1,1.9,0C425.58,264.28,425.8,264.75,425.44,265.51Z" transform="translate(-318.85 -84.87)"/><path class="cls-20" d="M335.07,287.25c.07-5.19,3.2-10.76,8.49-11.47a7.8,7.8,0,0,1,7.62,3.35,13.41,13.41,0,0,1-.54,17.27c-3.52,4-9.54,3.81-13.1-1A14.19,14.19,0,0,1,335.07,287.25Z" transform="translate(-318.85 -84.87)"/><path class="cls-21" d="M448.25,290.48a11.88,11.88,0,0,1-3.43,9.51c-3.39,3.5-8.37,3.44-11.93-.2-4.17-4.27-4.32-12.87-.38-17.32,4.33-4.88,11-4.08,14.17,1.71C447.8,286.22,448.67,288.34,448.25,290.48Z" transform="translate(-318.85 -84.87)"/><path class="cls-22" d="M425.44,265.51c0-.56-.1-1.06-.84-1h-1q-32,0-64,0c-.66,0-1.4-.25-2,.32a1.09,1.09,0,0,1-.69-.64c.46-.35,1-.19,1.51-.19h66.34a2.82,2.82,0,0,1,1.36.13C427.1,265.13,425.6,265,425.44,265.51Z" transform="translate(-318.85 -84.87)"/><path class="cls-23" d="M426.09,264.09l-67.31,0-1.9,0c.48-.62,1.17-.37,1.77-.37q32.9,0,65.81,0C425,263.78,425.63,263.59,426.09,264.09Z" transform="translate(-318.85 -84.87)"/><path class="cls-21" d="M333,271.39c1,0,3.38,3.22,3.33,4.46,0,.54-3.32,3.76-3.83,3.74-1.18,0-4.36-2.28-4.37-3.07C328.1,272.58,329.28,271.34,333,271.39Z" transform="translate(-318.85 -84.87)"/><path class="cls-24" d="M354.72,269c.74.2,1.92-.51,2.44.43a15.46,15.46,0,0,1,1.37,3.86c.18.73-3,3.29-3.91,3.29s-4-2.44-4-3.17C350.68,270.5,352,269,354.72,269Z" transform="translate(-318.85 -84.87)"/><path class="cls-21" d="M341.07,273c-.67,0-2.69-3.43-2.68-4.47a15.24,15.24,0,0,1,3.73-3.37c.67,0,4.32,2.45,4.21,2.94-.33,1.44-.41,3.13-1.24,4.22S342.32,272.33,341.07,273Z" transform="translate(-318.85 -84.87)"/><path class="cls-25" d="M427.69,274.85c.86,0,3.22,3.35,3.17,4.47,0,.53-3.22,3.64-3.71,3.62-1.28-.06-4.5-2.36-4.48-3.19C422.77,276.07,424.1,274.77,427.69,274.85Z" transform="translate(-318.85 -84.87)"/><path class="cls-26" d="M436.45,276.24c-.56-.26-1.45.58-1.84-.16a24.63,24.63,0,0,1-1.53-4c-.16-.5,3-3.3,3.67-3.36.81-.07,3.89,2.48,3.89,3.22C440.66,275.15,439.66,276.19,436.45,276.24Z" transform="translate(-318.85 -84.87)"/><path class="cls-27" d="M449.2,272.4c.78.21,1.91-.45,2.37.4a20.21,20.21,0,0,1,1.41,4c.13.47-3.19,3.15-3.82,3.17s-4-2.56-3.93-3a17.56,17.56,0,0,1,1.33-4.2C447,272,448.28,272.57,449.2,272.4Z" transform="translate(-318.85 -84.87)"/><path class="cls-28" d="M363.44,212.16c0-.1,0-.21,0-.31h57.8c0,.1,0,.21,0,.31Z" transform="translate(-318.85 -84.87)"/><path class="cls-29" d="M394.85,121.33c-.55.7-1.41.53-2,.9-1.57.94-1.64,2-.07,3a6.35,6.35,0,0,0,6.58-.11c1.39-.76,1.43-.06,1.53.92a4.14,4.14,0,0,1-2.23,4,11,11,0,0,1-11.43.06c-3.11-2.05-3.12-5.39,0-7.45A10.62,10.62,0,0,1,394.85,121.33Z" transform="translate(-318.85 -84.87)"/><path class="cls-30" d="M395.77,122.17a5.67,5.67,0,0,1,3.36,1c.76.54.79,1.12-.14,1.52a6.7,6.7,0,0,1-5.81.11c-.41-.19-.89-.36-.93-.92s.57-.89,1-1.05A6.05,6.05,0,0,1,395.77,122.17Z" transform="translate(-318.85 -84.87)"/><path class="cls-31" d="M389.4,140.51l-.69,0c.41-1.22,1.34-1.45,2.48-1.31C390.83,139.92,389.86,139.88,389.4,140.51Z" transform="translate(-318.85 -84.87)"/><path class="cls-32" d="M412.6,121.52a1,1,0,0,1-1,1,.93.93,0,0,1-1-.94,1,1,0,0,1,1.06-1.06C412.22,120.52,412.51,121,412.6,121.52Z" transform="translate(-318.85 -84.87)"/><path class="cls-33" d="M372.45,121.2c-.15.54-.44,1-1,.94a1,1,0,0,1-1-1.15.93.93,0,0,1,1.1-.85A1,1,0,0,1,372.45,121.2Z" transform="translate(-318.85 -84.87)"/><path class="cls-34" d="M353.07,288.37a10.85,10.85,0,0,1-4.82,8.8,6.89,6.89,0,0,1-7.89-.27c-5.46-3.93-5.83-14.12-.67-18.44,3.69-3.08,8.42-2.31,11.29,1.84A14.11,14.11,0,0,1,353.07,288.37Z" transform="translate(-318.85 -84.87)"/><path class="cls-34" d="M447.63,290.93a11.66,11.66,0,0,1-3.34,8.61,7.18,7.18,0,0,1-10.5,0c-4.43-4.32-4.47-12.91-.07-17.27a7.34,7.34,0,0,1,11.12.49A12.25,12.25,0,0,1,447.63,290.93Z" transform="translate(-318.85 -84.87)"/><path class="cls-34" d="M332.57,272.41c.91-.09,2.71,2,2.76,3.17a10.61,10.61,0,0,1-2.9,3c-.71,0-3.2-1.8-3.25-2.35C328.92,273.51,329.65,272.7,332.57,272.41Z" transform="translate(-318.85 -84.87)"/><path class="cls-35" d="M351.7,272.83c.3-2.41,1.44-3.27,4-3.05.62.05,1.91,2.37,1.84,3.33,0,.58-2.54,2.54-3.12,2.44C353.54,275.38,351.62,273.47,351.7,272.83Z" transform="translate(-318.85 -84.87)"/><path class="cls-36" d="M341.68,272.08c-.81,0-2-1.76-2.13-3.08,0-.61,2.19-2.78,2.8-2.73s2.94,1.86,2.93,2.28C345.17,271,344.11,272,341.68,272.08Z" transform="translate(-318.85 -84.87)"/><path class="cls-37" d="M423.63,279.29c.31-2.93,1.55-4,4.13-3.69.4.05,2.18,3,2.15,3.55a9,9,0,0,1-3,2.92C425.72,282,423.54,280.18,423.63,279.29Z" transform="translate(-318.85 -84.87)"/><path class="cls-38" d="M436.67,275.53c-1.3.06-2.68-1.52-2.77-3.16,0-.49,2.32-2.71,2.87-2.71s3.12,1.88,3.12,2.35C439.86,274.58,439.09,275.42,436.67,275.53Z" transform="translate(-318.85 -84.87)"/><path class="cls-38" d="M452.1,276.54a8.37,8.37,0,0,1-3,2.64c-.59,0-3.06-2.17-3-2.68.16-2.58,1-3.38,3.7-3.34C450.87,273.18,452.12,275,452.1,276.54Z" transform="translate(-318.85 -84.87)"/></svg>