<?xml version="1.0" encoding="utf-8"?>
<!-- Generator: Adobe Illustrator 21.0.0, SVG Export Plug-In . SVG Version: 6.00 Build 0)  -->
<svg version="1.1" id="Layer_1" xmlns="http://www.w3.org/2000/svg" xmlns:xlink="http://www.w3.org/1999/xlink" x="0px" y="0px"
	 viewBox="0 0 1000 630" style="enable-background:new 0 0 1000 630;" xml:space="preserve">
<style type="text/css">
	.st0{fill:url(#SVGID_1_);}
	.st1{fill:#FFFFFF;}
	.st2{fill:url(#SVGID_2_);}
	.st3{fill:url(#SVGID_3_);}
	.st4{fill:url(#SVGID_4_);}
	.st5{fill:url(#SVGID_5_);}
	.st6{fill:url(#SVGID_6_);}
	.st7{fill:url(#SVGID_7_);}
	.st8{fill:url(#SVGID_8_);}
</style>
<g>
	<g>
		<path class="st1" d="M868.6,145.2L868.6,145.2H728V61V45.2l-10.1-4.9c-43.7-19-90.4-30.9-138-35.3c0,0-49.4-4.9-66.1-4.9
			c-16.8,0-66.1,4.9-66.1,4.9c-47.6,4.4-93.9,16.3-138,35.3l-10.1,4.9v100.1H149.9v0.4l-35.3,34.8h35.3l0,0h184.7v-0.4h358.5v0.4
			h175.5l0,0h34.8L868.6,145.2z M692.7,164.6H334.2V68.1c39.2-15,80.2-24.7,122.1-28.7l5.7-0.4c0,0,38.4-3.1,51.6-3.1
			c13.2,0,51.6,3.1,51.6,3.1l5.7,0.4c41.9,3.5,82.9,13.2,122.1,28.7L692.7,164.6L692.7,164.6L692.7,164.6z M442.2,519.1l-19.4-23.4
			l25.6-25.6l23.4,19.4c6.6-4,13.7-7.1,21.2-8.8l2.6-30h36.2l2.6,30c7.5,1.8,14.6,4.9,21.2,8.8l23.4-19.4l25.6,25.6l-19.4,23.4
			c3.1,4.9,5.3,10.1,7.1,15.4c-12.3,8.4-25.1,15.9-38.4,22.5c-2.2-22-22-38.4-44.1-36.2c-19.4,1.8-34.4,17.2-36.2,36.2
			c-13.2-6.6-26.5-14.1-38.4-22.5C436.9,529.3,439.2,524,442.2,519.1z M903.9,403.2h-35.3l0,0H711.2l0,0H300.7l0,0H149.9l0,0h-35.3
			l34.8,34.8l0,0h149.5v14.1l0.9,3.1c1.8,5.3,49.4,129.2,208.6,173.3l4.9,1.3l4.9-1.3c159.2-44.1,206.8-168,208.6-173.3l0.9-3.1V438
			h141.1l0,0L903.9,403.2z M692.7,446c-9.7,21.2-22.5,41-37.9,58.6c-37.5,42.8-86.4,73.6-141.1,89.1c-54.7-15-104.1-46.3-141.1-89.1
			c-15.4-17.6-28.2-37.5-37.9-58.6v-27.3h358.5V446H692.7z M474,81.8L453.3,102l20.7,20.7h-15.9l-22-20.7l22-20.3
			C458.1,81.8,474,81.8,474,81.8z M523.4,74.3H537l-29.1,58.6h-14.6L523.4,74.3z M571.9,81.8l22,20.3l-22,20.7H556l20.7-20.7
			L556,81.8C556,81.8,571.9,81.8,571.9,81.8z"/>
	</g>
	<g>
		<polygon class="st1" points="128.7,367 128.7,216.7 92.6,216.7 92.6,274.9 36.2,274.9 36.2,216.7 0,216.7 0,367 36.2,367 
			36.2,308.8 92.6,308.8 92.6,367 		"/>
		<path class="st1" d="M162.7,367h38.8l8.8-23.8h59.5l8.8,23.8h38.8l-60.4-150.4h-34.4L162.7,367z M239.9,260.3L239.9,260.3
			c0.4,0,4.4,13.7,7.5,22l10.6,29.1h-36.2l10.6-29.1C235.9,274,239.4,260.3,239.9,260.3z"/>
		<path class="st1" d="M414.5,249.3c11.9,0,23.4,4.9,31.7,14.1l36.6-9.7c-21.2-37.5-68.8-50.7-106.3-29.1s-50.3,68.8-29.1,106.3
			s68.8,50.3,106.3,29.1c13.7-7.9,24.7-19.8,31.7-34l-36.6-9.3c-7.9,11.5-20.7,18.1-34.4,17.6c-23.4,0-40.6-16.3-40.6-42.3
			C374.3,266.9,389.8,249.3,414.5,249.3z"/>
		<path class="st1" d="M563.5,216.7h-36.2V367h36.2v-49.8l12.8-12.8l45.4,62.6h42.8l-64.4-86.4l63.9-63.9h-44.1l-36.6,36.2
			c-15.4,15.4-19.4,20.3-19.8,20.3l0,0c0,0,0.4-7.5,0.4-32.2L563.5,216.7L563.5,216.7L563.5,216.7z"/>
		<path class="st1" d="M823.2,268.3c0-30.9-22.9-51.6-60.8-51.6h-56V367h36.2v-48.9H761l27.8,48.9h40.6l-33.5-55.6
			C813.1,304,824.1,286.8,823.2,268.3z M767.6,285.9h-25.1v-35.7h25.1c9.7,0,18.1,7.9,18.1,17.6c0,9.7-7.9,18.1-17.6,18.1
			C767.6,285.9,767.6,285.9,767.6,285.9L767.6,285.9z"/>
		<path class="st1" d="M963.8,216.7v82.9c0,26-10.6,37-30.4,37c-19.8,0-30.4-11-30.4-37v-82.9h-36.2v83.8c0,45,26.5,69.7,66.6,69.7
			c39.7,0,66.6-24.7,66.6-69.7v-83.8H963.8z"/>
	</g>
</g>
</svg>
